<svg width="23" height="5" viewBox="0 0 23 5" fill="none" xmlns="http://www.w3.org/2000/svg">
<g clip-path="url(#clip0_2316_1696)">
<path d="M13.6875 2.5C13.6875 2.93265 13.5592 3.35558 13.3188 3.71531C13.0785 4.07504 12.7368 4.35542 12.3371 4.52099C11.9374 4.68655 11.4976 4.72987 11.0732 4.64547C10.6489 4.56106 10.2591 4.35272 9.95321 4.0468C9.64728 3.74087 9.43894 3.35109 9.35453 2.92676C9.27013 2.50243 9.31345 2.06259 9.47901 1.66288C9.64458 1.26317 9.92496 0.921526 10.2847 0.68116C10.6444 0.440795 11.0674 0.3125 11.5 0.3125C12.0802 0.3125 12.6366 0.542969 13.0468 0.953204C13.457 1.36344 13.6875 1.91984 13.6875 2.5ZM2.20313 0.3125C1.77048 0.3125 1.34755 0.440795 0.987817 0.68116C0.628084 0.921526 0.347706 1.26317 0.18214 1.66288C0.0165728 2.06259 -0.026747 2.50243 0.0576582 2.92676C0.142063 3.35109 0.350403 3.74087 0.65633 4.0468C0.962257 4.35272 1.35203 4.56106 1.77637 4.64547C2.2007 4.72987 2.64053 4.68655 3.04025 4.52099C3.43996 4.35542 3.7816 4.07504 4.02197 3.71531C4.26233 3.35558 4.39063 2.93265 4.39063 2.5C4.39063 1.91984 4.16016 1.36344 3.74992 0.953204C3.33969 0.542969 2.78329 0.3125 2.20313 0.3125ZM20.7969 0.3125C20.3642 0.3125 19.9413 0.440795 19.5816 0.68116C19.2218 0.921526 18.9415 1.26317 18.7759 1.66288C18.6103 2.06259 18.567 2.50243 18.6514 2.92676C18.7358 3.35109 18.9442 3.74087 19.2501 4.0468C19.556 4.35272 19.9458 4.56106 20.3701 4.64547C20.7945 4.72987 21.2343 4.68655 21.634 4.52099C22.0337 4.35542 22.3754 4.07504 22.6157 3.71531C22.8561 3.35558 22.9844 2.93265 22.9844 2.5C22.9844 1.91984 22.7539 1.36344 22.3437 0.953204C21.9334 0.542969 21.377 0.3125 20.7969 0.3125Z" fill="#001A00"/>
</g>
<defs>
<clipPath id="clip0_2316_1696">
<rect width="23" height="5" fill="white"/>
</clipPath>
</defs>
</svg>
