<svg xmlns="http://www.w3.org/2000/svg" xmlns:xlink="http://www.w3.org/1999/xlink" width="1em" height="1em" viewBox="0 0 100 100" version="1.1">
  <path fill="#FF5722" d="M94.1914673,35.454895c-0.0067748-0.0127563-0.0123291-0.0259399-0.0194702-0.0385132  c-0.2415161-0.4528198-0.4945068-0.9023438-0.7631836-1.3466187c-3.0687866-5.0773315-7.4830933-8.8508301-12.5115967-11.1459961  c-0.0969849-0.055542-0.1981812-0.1016846-0.3049927-0.131958c-5.4606323-2.4161377-11.6190796-3.0968018-17.5621948-1.8184204  c-0.048584,0.0083618-0.0963135,0.0180664-0.1439209,0.0316162c-2.9515991,0.651123-5.8482666,1.7782593-8.5750732,3.4263916  C47.8022461,28.3659668,43.21521,34.5997314,41.3948364,41.984375c-0.3986816,1.6176758-0.6455688,3.2480469-0.7601318,4.8764038  c-0.0553589,0.1917114-0.0734863,0.3936157-0.0418701,0.593689c-0.2765503,5.6051025,1.112915,11.1647339,4.0808105,16.0744019  c0.2094727,0.3466187,0.4360352,0.6761475,0.6578369,1.0105591c0.0751953,0.2286987,0.2073364,0.4294434,0.3823242,0.5873413  c2.7788696,3.9762573,6.4332275,7.0319214,10.5370483,9.0886841c0.1806641,0.1624146,0.4004517,0.2770386,0.642334,0.326355  c3.8078003,1.789856,7.9797974,2.7246094,12.1952515,2.7246094c1.8970947,0,3.8029175-0.19104,5.6883545-0.5769653  c0.074707-0.0131836,0.147522-0.0269165,0.21875-0.052002c3.0211792-0.6433716,5.9874878-1.7849731,8.7755737-3.4702148  c2.8277588-1.7094727,5.2463379-3.8399048,7.2357788-6.2575073c0.0198975-0.0237427,0.0413208-0.0456543,0.0595703-0.0707397  c3.9562378-4.8400879,6.1757202-10.833313,6.4140625-16.9814453c0.0195312-0.1257935,0.0256348-0.2525635,0.0101318-0.3780518  C97.6119385,44.7285767,96.5536499,39.9005127,94.1914673,35.454895z M64.9429321,23.4080811  c1.3483887-0.2158203,2.7037964-0.3357544,4.055481-0.3357544c3.2019653,0,6.3746948,0.6019287,9.3493652,1.7528687  l1.826416,10.1744995l-4.2565918,5.0880127l-11.1878052-1.0689697l-3.6790161-6.0860596L64.9429321,23.4080811z   M43.4712524,45.9337158c0.1255493-1.1004028,0.3153076-2.2003174,0.5847778-3.2935791  c0.84021-3.4084473,2.3361816-6.5432129,4.3792725-9.2709961l10.2720337,0.9838257l3.6775513,6.0836792L58.1317749,50.84021  l-6.5206299,1.4241333L43.4712524,45.9337158z M65.5223389,66.199585l-8.9666138,5.0870361  c-3.0266724-1.6738892-5.7474976-3.9713745-7.9450684-6.8460083l3.675354-9.5179443l6.4345703-1.4053955l7.8588867,7.2875366  L65.5223389,66.199585z M82.3532104,70.821228c-2.1473389,1.2984619-4.4117432,2.2379761-6.7234497,2.8493652l-7.3947754-7.0593262  l1.0646362-5.4332886L79.87854,54.782959l5.270752,1.5979614l2.8189087,9.8450928  C86.3596191,67.9748535,84.4865112,69.5316162,82.3532104,70.821228z M86.0498047,53.7897949l-5.2335815-1.5865479  l-2.8012085-10.3510132l4.1999512-5.0202637l10.1827393,1.1743774c1.5149536,3.2734375,2.2805786,6.7402954,2.3557129,10.1882324  L86.0498047,53.7897949z"/>
  <path fill="#FF5722" d="M38.3920898,48.8029785c0-11.4614258,6.2980347-21.4462891,15.618042-26.7002563  c-5.6660767,0.8254395-11.0045776,2.6259155-15.9918213,4.3079834c-6.8898315,2.324646-12.9616699,4.3728638-18.2285156,3.2527466  c1.4138794,4.1901855,6.4368286,7.8430176,10.78125,9.8752441l2.7184448,1.2713623l-2.7415161,1.2218628  c-0.4777832,0.2127686-7.7149048,3.3671255-16.3408813,3.3671265c-3.7865601,0-7.8396606-0.6135864-11.7070923-2.3450317  c3.0558472,8.4951782,16.6893921,17.6522217,33.3459473,18.2896118c0,0-7.7186279,1.8943481-14.0808105,8.350769  c5.6967773,1.1342153,11.0095215,1.3516235,16.4992065,3.0759888c10.460144,3.2855225,14.1474609,8.0400766,29.4760132,6.636146 C51.418396,78.7313843,38.3920898,65.2912598,38.3920898,48.8029785z"/>
</svg>