<svg width="42" height="40" viewBox="0 0 42 40" fill="none" xmlns="http://www.w3.org/2000/svg">
<path fill-rule="evenodd" clip-rule="evenodd" d="M14.0869 23.5266L13.8496 23.0341C13.4079 22.1174 13.1599 21.0891 13.1599 20C13.1599 16.134 16.2939 13 20.1599 13C24.0259 13 27.1599 16.134 27.1599 20C27.1599 23.866 24.0259 27 20.1599 27C19.0552 27 18.0129 26.7448 17.0862 26.2911L16.8183 26.1599L16.5224 26.1969L12.1038 26.7492L13.8004 23.9923L14.0869 23.5266ZM10.8318 26.9082L10.1599 28L11.4319 27.841L16.6464 27.1892C17.707 27.7085 18.8994 28 20.1599 28C24.5782 28 28.1599 24.4183 28.1599 20C28.1599 15.5817 24.5782 12 20.1599 12C15.7416 12 12.1599 15.5817 12.1599 20C12.1599 21.2426 12.4432 22.419 12.9487 23.4682L10.8318 26.9082Z" fill="black" fill-opacity="0.8"/>
</svg>
