<svg width="24" height="24" viewBox="0 0 24 24" fill="none" xmlns="http://www.w3.org/2000/svg">
<path d="M12.3201 20.2616C13.1245 20.2062 13.9222 20.0779 14.7034 19.8783C15.6669 20.1685 16.6839 20.2347 17.6768 20.0716L17.7934 20.0616C18.1484 20.0616 18.6134 20.265 19.2934 20.6933V19.9883C19.2932 19.8658 19.3258 19.7455 19.388 19.6399C19.4501 19.5344 19.5395 19.4474 19.6468 19.3883C19.9423 19.2238 20.2157 19.0366 20.4668 18.8266C21.4534 18.0016 22.0118 16.9 22.0118 15.7333C22.0118 15.35 21.9501 14.9666 21.8301 14.6C22.1282 14.0514 22.3684 13.4733 22.5468 12.875C23.1184 13.7183 23.4251 14.715 23.4301 15.735C23.4301 17.3183 22.6818 18.7966 21.3884 19.8766C21.1729 20.0566 20.9462 20.2233 20.7084 20.3766V22.0233C20.7084 22.59 20.0468 22.915 19.5784 22.5783C19.1362 22.2516 18.6796 21.9472 18.2084 21.665C18.073 21.5851 17.9321 21.5149 17.7868 21.455C17.3932 21.5122 16.9961 21.5411 16.5984 21.5416C15.0763 21.553 13.5859 21.1071 12.3201 20.2616ZM3.78678 16.9666C1.74844 15.2616 0.571777 12.9366 0.571777 10.445C0.571777 5.35496 5.43844 1.28662 11.3801 1.28662C17.3218 1.28662 22.1884 5.35329 22.1884 10.445C22.1884 15.535 17.3218 19.6033 11.3801 19.6033C10.7188 19.6044 10.0585 19.5537 9.40511 19.4516C9.12511 19.515 8.00511 20.1716 6.39344 21.335C5.81011 21.7566 4.98178 21.3483 4.98178 20.64V17.8283C4.56337 17.5708 4.16285 17.2828 3.78678 16.9666ZM9.44511 17.7166C9.49511 17.7166 9.54511 17.7211 9.59511 17.73C10.1784 17.8266 10.774 17.875 11.3818 17.875C16.4001 17.875 20.4184 14.5166 20.4184 10.445C20.4184 6.37329 16.4001 3.01662 11.3801 3.01662C6.36344 3.01662 2.34344 6.37496 2.34344 10.4466C2.34344 12.415 3.28178 14.27 4.94178 15.6566C5.35955 16.0066 5.81511 16.3194 6.30844 16.595C6.44229 16.6695 6.55398 16.7782 6.63215 16.9099C6.71032 17.0417 6.75217 17.1918 6.75344 17.345V18.965C8.02844 18.12 8.86678 17.72 9.44344 17.72" fill="#001A00"/>
<path d="M7.00011 12C7.37893 12 7.74223 11.8495 8.0101 11.5816C8.27796 11.3138 8.42845 10.9505 8.42845 10.5716C8.42845 10.1928 8.27796 9.82952 8.0101 9.56166C7.74223 9.29379 7.37893 9.14331 7.00011 9.14331C6.62129 9.14331 6.25799 9.29379 5.99013 9.56166C5.72226 9.82952 5.57178 10.1928 5.57178 10.5716C5.57178 10.9505 5.72226 11.3138 5.99013 11.5816C6.25799 11.8495 6.62129 12 7.00011 12ZM11.6434 12C12.0223 12 12.3856 11.8495 12.6534 11.5816C12.9213 11.3138 13.0718 10.9505 13.0718 10.5716C13.0718 10.1928 12.9213 9.82952 12.6534 9.56166C12.3856 9.29379 12.0223 9.14331 11.6434 9.14331C11.2646 9.14331 10.9013 9.29379 10.6335 9.56166C10.3656 9.82952 10.2151 10.1928 10.2151 10.5716C10.2151 10.9505 10.3656 11.3138 10.6335 11.5816C10.9013 11.8495 11.2646 12 11.6434 12ZM16.2868 12.0016C16.6656 12.0016 17.0289 11.8512 17.2968 11.5833C17.5646 11.3154 17.7151 10.9521 17.7151 10.5733C17.7151 10.1945 17.5646 9.83119 17.2968 9.56333C17.0289 9.29546 16.6656 9.14498 16.2868 9.14498C15.908 9.14498 15.5447 9.29546 15.2768 9.56333C15.0089 9.83119 14.8584 10.1945 14.8584 10.5733C14.8584 10.9521 15.0089 11.3154 15.2768 11.5833C15.5447 11.8512 15.908 12.0016 16.2868 12.0016Z" fill="#001A00"/>
</svg>
