<svg width="12" height="12" viewBox="0 0 12 12" fill="none" xmlns="http://www.w3.org/2000/svg">
<g clip-path="url(#clip0_2316_1738)">
<path d="M6.16006 10.1308C6.56226 10.1031 6.96111 10.0389 7.35172 9.93915C7.83343 10.0843 8.34194 10.1173 8.83839 10.0358L8.89672 10.0308C9.07422 10.0308 9.30672 10.1325 9.64672 10.3466V9.99415C9.64658 9.9329 9.6629 9.87273 9.69398 9.81996C9.72506 9.76718 9.76976 9.72373 9.82339 9.69415C9.97117 9.61192 10.1078 9.51831 10.2334 9.41331C10.7267 9.00081 11.0059 8.44998 11.0059 7.86665C11.0059 7.67498 10.9751 7.48331 10.9151 7.29998C11.0641 7.02569 11.1842 6.73663 11.2734 6.43748C11.5592 6.85915 11.7126 7.35748 11.7151 7.86748C11.7151 8.65915 11.3409 9.39831 10.6942 9.93831C10.5864 10.0283 10.4731 10.1116 10.3542 10.1883V11.0116C10.3542 11.295 10.0234 11.4575 9.78922 11.2891C9.56811 11.1258 9.33978 10.9736 9.10422 10.8325C9.03651 10.7926 8.96606 10.7575 8.89339 10.7275C8.69662 10.7561 8.49806 10.7706 8.29922 10.7708C7.53817 10.7765 6.79293 10.5536 6.16006 10.1308ZM1.89339 8.48331C0.874222 7.63081 0.285889 6.46831 0.285889 5.22248C0.285889 2.67748 2.71922 0.643311 5.69006 0.643311C8.66089 0.643311 11.0942 2.67664 11.0942 5.22248C11.0942 7.76748 8.66089 9.80165 5.69006 9.80165C5.35941 9.80218 5.02924 9.77683 4.70256 9.72581C4.56256 9.75748 4.00256 10.0858 3.19672 10.6675C2.90506 10.8783 2.49089 10.6741 2.49089 10.32V8.91415C2.28169 8.78539 2.08142 8.64139 1.89339 8.48331ZM4.72256 8.85831C4.74756 8.85831 4.77256 8.86053 4.79756 8.86498C5.08922 8.91331 5.387 8.93748 5.69089 8.93748C8.20006 8.93748 10.2092 7.25831 10.2092 5.22248C10.2092 3.18664 8.20006 1.50831 5.69006 1.50831C3.18172 1.50831 1.17172 3.18748 1.17172 5.22331C1.17172 6.20748 1.64089 7.13498 2.47089 7.82831C2.67978 8.00331 2.90756 8.1597 3.15422 8.29748C3.22114 8.33474 3.27699 8.38908 3.31608 8.45495C3.35516 8.52083 3.37609 8.59589 3.37672 8.67248V9.48248C4.01422 9.05998 4.43339 8.85998 4.72172 8.85998" fill="#464646"/>
<path d="M3.50006 6.00011C3.68946 6.00011 3.87112 5.92487 4.00505 5.79094C4.13898 5.657 4.21422 5.47535 4.21422 5.28594C4.21422 5.09653 4.13898 4.91488 4.00505 4.78095C3.87112 4.64702 3.68946 4.57178 3.50006 4.57178C3.31065 4.57178 3.129 4.64702 2.99506 4.78095C2.86113 4.91488 2.78589 5.09653 2.78589 5.28594C2.78589 5.47535 2.86113 5.657 2.99506 5.79094C3.129 5.92487 3.31065 6.00011 3.50006 6.00011ZM5.82172 6.00011C6.01113 6.00011 6.19278 5.92487 6.32671 5.79094C6.46065 5.657 6.53589 5.47535 6.53589 5.28594C6.53589 5.09653 6.46065 4.91488 6.32671 4.78095C6.19278 4.64702 6.01113 4.57178 5.82172 4.57178C5.63231 4.57178 5.45066 4.64702 5.31673 4.78095C5.1828 4.91488 5.10756 5.09653 5.10756 5.28594C5.10756 5.47535 5.1828 5.657 5.31673 5.79094C5.45066 5.92487 5.63231 6.00011 5.82172 6.00011ZM8.14339 6.00094C8.3328 6.00094 8.51445 5.9257 8.64838 5.79177C8.78231 5.65784 8.85756 5.47619 8.85756 5.28678C8.85756 5.09737 8.78231 4.91572 8.64838 4.78179C8.51445 4.64785 8.3328 4.57261 8.14339 4.57261C7.95398 4.57261 7.77233 4.64785 7.6384 4.78179C7.50446 4.91572 7.42922 5.09737 7.42922 5.28678C7.42922 5.47619 7.50446 5.65784 7.6384 5.79177C7.77233 5.9257 7.95398 6.00094 8.14339 6.00094Z" fill="#464646"/>
</g>
<defs>
<clipPath id="clip0_2316_1738">
<rect width="12" height="12" fill="white"/>
</clipPath>
</defs>
</svg>
