<svg width="31" height="31" viewBox="0 0 31 31" fill="none" xmlns="http://www.w3.org/2000/svg">
<circle cx="15.5" cy="15.5" r="14.5" stroke="white" stroke-width="2"/>
<path d="M14.6404 19.6961L19.0778 15.2586C18.3313 14.9468 17.6533 14.4914 17.0823 13.9183C16.5089 13.3471 16.0533 12.6689 15.7414 11.9222L11.3039 16.3596C10.9577 16.7058 10.7843 16.8792 10.6355 17.07C10.46 17.2953 10.3093 17.5389 10.1862 17.7966C10.0824 18.0149 10.005 18.2477 9.85017 18.7121L9.033 21.1618C8.99539 21.274 8.98981 21.3944 9.01688 21.5096C9.04396 21.6247 9.10262 21.7301 9.18627 21.8137C9.26993 21.8974 9.37525 21.956 9.49041 21.9831C9.60557 22.0102 9.726 22.0046 9.83817 21.967L12.2879 21.1498C12.7529 20.995 12.9851 20.9176 13.2034 20.8138C13.4622 20.6906 13.7044 20.5409 13.93 20.3645C14.1208 20.2157 14.2942 20.0423 14.6404 19.6961ZM20.309 14.0275C20.7514 13.585 21 12.985 21 12.3592C21 11.7335 20.7514 11.1335 20.309 10.691C19.8665 10.2486 19.2665 10 18.6408 10C18.015 10 17.415 10.2486 16.9725 10.691L16.4403 11.2232L16.4631 11.2898C16.7253 12.0402 17.1545 12.7213 17.7183 13.2817C18.2954 13.8624 19.0004 14.3 19.7768 14.5597L20.309 14.0275Z" fill="white"/>
</svg>
