<svg width="20" height="10" viewBox="0 0 20 10" fill="none" xmlns="http://www.w3.org/2000/svg">
<path fill-rule="evenodd" clip-rule="evenodd" d="M16.4828 2.2853C16.8415 2.07819 17.3002 2.2011 17.5073 2.55982L19.6457 6.26368C19.8528 6.6224 19.7299 7.0811 19.3712 7.2882C19.0125 7.49531 18.5538 7.3724 18.3467 7.01368L16.2083 3.30982C16.0012 2.9511 16.1241 2.49241 16.4828 2.2853Z" fill="#289827"/>
<path fill-rule="evenodd" clip-rule="evenodd" d="M12.3245 4.25481C12.7324 4.18288 13.1214 4.45525 13.1933 4.86318L13.8602 8.64542C13.9322 9.05334 13.6598 9.44233 13.2519 9.51426C12.8439 9.58619 12.4549 9.31381 12.383 8.90589L11.7161 5.12365C11.6442 4.71573 11.9166 4.32673 12.3245 4.25481Z" fill="#289827"/>
<path fill-rule="evenodd" clip-rule="evenodd" d="M7.6675 4.25297C8.07542 4.3249 8.3478 4.7139 8.27587 5.12182L7.60885 8.90468C7.53692 9.3126 7.14793 9.58498 6.74001 9.51305C6.33209 9.44112 6.05971 9.05213 6.13164 8.64421L6.79866 4.86134C6.87059 4.45342 7.25958 4.18105 7.6675 4.25297Z" fill="#289827"/>
<path fill-rule="evenodd" clip-rule="evenodd" d="M3.51336 2.28225C3.87207 2.48935 3.99498 2.94805 3.78787 3.30677L1.63915 7.02847C1.43204 7.38719 0.973347 7.5101 0.614627 7.30299C0.255908 7.09589 0.133001 6.63719 0.340108 6.27847L2.48884 2.55677C2.69594 2.19805 3.15464 2.07514 3.51336 2.28225Z" fill="#289827"/>
<path fill-rule="evenodd" clip-rule="evenodd" d="M0.528704 0.248656C0.850907 -0.0116475 1.32312 0.038532 1.58343 0.360735C3.07693 2.20939 5.77276 4.50002 10.0001 4.50002C14.2274 4.50002 16.9232 2.2094 18.4167 0.360755C18.677 0.0385528 19.1492 -0.0116257 19.4714 0.248679C19.7936 0.508983 19.8438 0.981198 19.5835 1.3034C17.9247 3.35671 14.8415 6.00002 10.0001 6.00002C5.15868 6.00002 2.07547 3.35669 0.416625 1.30338C0.156321 0.981175 0.206501 0.50896 0.528704 0.248656Z" fill="#289827"/>
</svg>
