<svg width="24" height="24" viewBox="0 0 24 24" fill="none" xmlns="http://www.w3.org/2000/svg">
<path fill-rule="evenodd" clip-rule="evenodd" d="M3.12685 3.99297C3.37038 3.83441 3.65472 3.75 3.94531 3.75H20.0545C20.3451 3.75 20.6294 3.83441 20.8729 3.99297C21.1165 4.15153 21.3087 4.37742 21.4263 4.64317C21.5438 4.90893 21.5817 5.20311 21.5352 5.48996C21.4887 5.77681 21.3599 6.04399 21.1644 6.25901L14.9999 13.04V18.3486C14.9999 18.5956 14.9389 18.8387 14.8224 19.0564C14.7059 19.2741 14.5374 19.4597 14.332 19.5967L11.332 21.5967C11.1061 21.7473 10.8435 21.8338 10.5723 21.8469C10.3011 21.86 10.0315 21.7992 9.79211 21.6711C9.55274 21.543 9.35262 21.3523 9.21311 21.1194C9.07359 20.8865 8.9999 20.6201 8.9999 20.3486L8.9999 13.04L2.8354 6.25901C2.63993 6.04399 2.51112 5.77681 2.46463 5.48996C2.41814 5.2031 2.45598 4.90892 2.57354 4.64317C2.6911 4.37742 2.88333 4.15153 3.12685 3.99297ZM3.39036 5.7545L3.94531 5.25L3.39036 5.7545ZM3.94531 5.25L20.0545 5.25L13.89 12.0309C13.639 12.3071 13.4999 12.6668 13.4999 13.04V18.3486L10.4999 20.3486V13.04C10.4999 12.6668 10.3608 12.3071 10.1098 12.0309L3.94531 5.25Z" fill="#111112"/>
</svg>
