<svg width="41" height="41" viewBox="0 0 41 41" fill="none" xmlns="http://www.w3.org/2000/svg">
<path d="M28.2917 16.1668C28.2917 18.3107 27.4401 20.3667 25.9241 21.8826C24.4082 23.3986 22.3522 24.2502 20.2083 24.2502C18.0645 24.2502 16.0085 23.3986 14.4926 21.8826C12.9766 20.3667 12.125 18.3107 12.125 16.1668C12.125 14.023 12.9766 11.967 14.4926 10.4511C16.0085 8.93513 18.0645 8.0835 20.2083 8.0835C22.3522 8.0835 24.4082 8.93513 25.9241 10.4511C27.4401 11.967 28.2917 14.023 28.2917 16.1668Z" fill="white"/>
<path fill-rule="evenodd" clip-rule="evenodd" d="M19.3839 40.4006C8.60574 39.9681 0 31.0926 0 20.2084C0 9.04729 9.04729 0 20.2084 0C31.3695 0 40.4167 9.04729 40.4167 20.2084C40.4167 31.3695 31.3695 40.4167 20.2084 40.4167H19.9315C19.7483 40.4167 19.5657 40.4114 19.3839 40.4006ZM7.24066 32.9599C7.08957 32.526 7.03814 32.0636 7.09019 31.6071C7.14224 31.1506 7.29644 30.7117 7.54134 30.3229C7.78624 29.9342 8.11554 29.6056 8.50482 29.3615C8.89409 29.1175 9.33334 28.9642 9.78995 28.9131C17.6672 28.0411 22.7981 28.12 30.6369 28.9313C31.0941 28.9789 31.5345 29.1303 31.9244 29.3738C32.3143 29.6173 32.6434 29.9465 32.8868 30.3365C33.1303 30.7265 33.2815 31.1668 33.329 31.6241C33.3765 32.0813 33.319 32.5433 33.1609 32.975C36.5207 29.576 38.4021 24.9876 38.3959 20.2084C38.3959 10.1638 30.2529 2.02084 20.2084 2.02084C10.1638 2.02084 2.02084 10.1638 2.02084 20.2084C2.02084 25.1756 4.01237 29.678 7.24066 32.9599Z" fill="white"/>
</svg>
