<svg width="10" height="10" viewBox="0 0 10 10" fill="none" xmlns="http://www.w3.org/2000/svg">
<path d="M5 9C7.20917 9 9 7.20917 9 5C9 2.79086 7.20917 1 5 1C2.79086 1 1 2.79086 1 5C1 7.20917 2.79086 9 5 9Z" stroke="#464646" stroke-linecap="round" stroke-linejoin="round"/>
<path d="M1.30762 6.53836H2.38454C2.67016 6.53836 2.94408 6.42489 3.14604 6.22293C3.34801 6.02097 3.46146 5.74704 3.46146 5.46143V4.53836C3.46146 4.25274 3.57492 3.97882 3.77688 3.77685C3.97885 3.57489 4.25277 3.46143 4.53839 3.46143C4.82401 3.46143 5.09793 3.34797 5.29989 3.146C5.50185 2.94404 5.61531 2.67013 5.61531 2.38451V1.04297" stroke="#464646" stroke-linecap="round" stroke-linejoin="round"/>
<path d="M9.00009 4.93854C8.69197 4.77867 8.35031 4.6943 8.00317 4.69238H6.6924C6.40678 4.69238 6.13286 4.80584 5.9309 5.0078C5.72894 5.20977 5.61548 5.48369 5.61548 5.76931C5.61548 6.05492 5.72894 6.32884 5.9309 6.53081C6.13286 6.73277 6.40678 6.84623 6.6924 6.84623C6.8964 6.84623 7.09209 6.92728 7.23634 7.07152C7.38059 7.21577 7.46163 7.41146 7.46163 7.61546V8.15084" stroke="#464646" stroke-linecap="round" stroke-linejoin="round"/>
</svg>
