<svg width="18" height="18" viewBox="0 0 18 18" fill="none" xmlns="http://www.w3.org/2000/svg">
<path d="M9.45596 7.35598V10.807H14.248C13.802 13 11.935 14.26 9.45596 14.26C6.56851 14.2202 4.24862 11.8682 4.24862 8.98048C4.24862 6.09275 6.56851 3.74072 9.45596 3.70098C10.6562 3.69954 11.8194 4.11605 12.746 4.87898L15.346 2.27898C12.3636 -0.342952 8.00797 -0.680185 4.65752 1.45142C1.30707 3.58303 -0.233015 7.67119 0.87821 11.4836C1.98943 15.296 5.48491 17.9164 9.45596 17.914C13.923 17.914 17.985 14.665 17.985 8.97998C17.9781 8.43262 17.911 7.88768 17.785 7.35498L9.45596 7.35598Z" fill="#F4FCFF"/>
</svg>
