<svg width="23" height="21" viewBox="0 0 23 21" fill="none" xmlns="http://www.w3.org/2000/svg">
<path d="M14.5127 13.98C16.7239 13.98 18.5164 12.1917 18.5164 9.98573V3.99429C18.5164 1.78831 16.7239 0 14.5127 0H4.50364C2.29249 0 0.5 1.78831 0.5 3.99429V16.4765C0.5 16.7522 0.724061 16.9757 1.00045 16.9757C1.13269 16.975 1.25902 16.921 1.35077 16.826L3.35259 14.8288C3.92744 14.2704 4.70238 13.9648 5.50455 13.98H14.5127ZM20.5182 3.99429V11.9829C20.5182 14.1889 18.7257 15.9772 16.5146 15.9772H4.50364C4.50364 17.0802 5.39988 17.9743 6.50546 17.9743H17.5155C18.315 17.9724 19.0824 18.2886 19.6474 18.8531L21.6492 20.8502C21.741 20.9452 21.8673 20.9992 21.9995 21C22.2759 21 22.5 20.7765 22.5 20.5007V5.99144C22.5001 4.8962 21.6159 4.00525 20.5182 3.99429Z" fill="#99E698"/>
</svg>
