<svg width="25" height="24" viewBox="0 0 25 24" fill="none" xmlns="http://www.w3.org/2000/svg">
<path fill-rule="evenodd" clip-rule="evenodd" d="M11.5 3.75C7.49594 3.75 4.25 6.99594 4.25 11C4.25 15.0041 7.49594 18.25 11.5 18.25C15.5041 18.25 18.75 15.0041 18.75 11C18.75 6.99594 15.5041 3.75 11.5 3.75ZM2.75 11C2.75 6.16751 6.66751 2.25 11.5 2.25C16.3325 2.25 20.25 6.16751 20.25 11C20.25 15.8325 16.3325 19.75 11.5 19.75C6.66751 19.75 2.75 15.8325 2.75 11Z" fill="#111112"/>
<path fill-rule="evenodd" clip-rule="evenodd" d="M16.6196 16.1196C16.9125 15.8267 17.3873 15.8267 17.6802 16.1196L22.0302 20.4696C22.3231 20.7625 22.3231 21.2373 22.0302 21.5302C21.7373 21.8231 21.2625 21.8231 20.9696 21.5302L16.6196 17.1802C16.3267 16.8873 16.3267 16.4125 16.6196 16.1196Z" fill="#111112"/>
</svg>
