<svg width="42" height="40" viewBox="0 0 42 40" fill="none" xmlns="http://www.w3.org/2000/svg">
<path fill-rule="evenodd" clip-rule="evenodd" d="M24.28 18.5C24.28 21.5376 21.8176 24 18.78 24C15.7425 24 13.28 21.5376 13.28 18.5C13.28 15.4624 15.7425 13 18.78 13C21.8176 13 24.28 15.4624 24.28 18.5ZM23.0091 23.4362C21.8724 24.411 20.395 25 18.78 25C15.1902 25 12.28 22.0899 12.28 18.5C12.28 14.9101 15.1902 12 18.78 12C22.3699 12 25.28 14.9101 25.28 18.5C25.28 20.1149 24.6911 21.5923 23.7162 22.7291L28.1336 27.1464L27.4265 27.8536L23.0091 23.4362Z" fill="black" fill-opacity="0.8"/>
</svg>
